<svg width="256" height="256" viewBox="0 0 256 256" fill="none" xmlns="http://www.w3.org/2000/svg">
<path d="M234.38 210C220.67 185.937 199.261 167.188 173.6 156.77C186.361 147.2 195.787 133.856 200.543 118.631C205.3 103.405 205.145 87.0694 200.1 71.9369C195.056 56.8044 185.379 43.6426 172.438 34.3158C159.498 24.9891 143.952 19.9702 128 19.9702C112.049 19.9702 96.5026 24.9891 83.5625 34.3158C70.6223 43.6426 60.9447 56.8044 55.9005 71.9369C50.8563 87.0694 50.7013 103.405 55.4574 118.631C60.2135 133.856 69.6396 147.2 82.4004 156.77C56.7397 167.188 35.3309 185.937 21.6204 210C20.7709 211.366 20.2047 212.889 19.9554 214.478C19.7062 216.068 19.7791 217.691 20.1697 219.251C20.5602 220.812 21.2606 222.278 22.2291 223.562C23.1976 224.847 24.4145 225.923 25.8074 226.728C27.2003 227.533 28.7408 228.049 30.3372 228.247C31.9337 228.444 33.5536 228.319 35.1006 227.878C36.6476 227.437 38.0902 226.689 39.3425 225.679C40.5948 224.67 41.6313 223.418 42.3904 222C60.5104 190.68 92.5104 172 128 172C163.49 172 195.49 190.69 213.61 222C215.256 224.646 217.865 226.547 220.887 227.304C223.909 228.06 227.106 227.612 229.804 226.053C232.501 224.495 234.487 221.949 235.341 218.953C236.195 215.957 235.85 212.747 234.38 210ZM76.0004 96.0002C76.0004 85.7156 79.0502 75.6619 84.764 67.1106C90.4779 58.5592 98.5991 51.8942 108.101 47.9585C117.603 44.0227 128.058 42.9929 138.145 44.9994C148.232 47.0058 157.498 51.9583 164.77 59.2307C172.042 66.503 176.995 75.7685 179.001 85.8555C181.008 95.9425 179.978 106.398 176.042 115.9C172.106 125.402 165.441 133.523 156.89 139.237C148.339 144.95 138.285 148 128 148C114.214 147.984 100.997 142.501 91.2484 132.752C81.5 123.004 76.0163 109.787 76.0004 96.0002Z" fill="black"/>
</svg>
